<?xml version="1.0" encoding="UTF-8"?>
<svg width="278px" height="48px" viewBox="0 0 278 48" version="1.1" xmlns="http://www.w3.org/2000/svg" xmlns:xlink="http://www.w3.org/1999/xlink">
    <title>Garden Copy 2</title>
    <g id="Page-1" stroke="none" stroke-width="1" fill="none" fill-rule="evenodd">
        <g id="Garden-Copy-2" transform="translate(-1, -22)" fill="#302C19" fill-rule="nonzero">
            <path d="M23.472,69.864 C26.352,69.864 28.944,69.432 31.32,68.424 C33.624,67.488 35.424,66.048 36.648,63.96 L36.648,69 L47.304,69 L47.304,45.456 L25.704,45.456 L25.704,54.24 L35.712,54.24 C34.776,56.04 33.48,57.336 31.68,58.2 C29.88,59.064 28.008,59.496 26.064,59.496 C22.176,59.496 19.224,58.272 17.136,55.824 C15.048,53.448 14.04,50.28 14.04,46.32 C14.04,42.504 14.976,39.408 16.92,37.104 C18.864,34.8 21.6,33.648 25.128,33.648 C28.008,33.648 30.312,34.368 32.04,35.88 C33.696,37.392 34.704,39.336 35.064,41.784 L46.944,41.352 C46.44,35.736 44.352,31.2 40.536,27.816 C36.72,24.432 31.464,22.776 24.84,22.776 C18.288,22.776 12.816,24.936 8.28,29.328 C3.744,33.72 1.44,39.336 1.44,46.32 C1.44,53.304 3.528,58.992 7.776,63.312 C12.024,67.704 17.208,69.864 23.472,69.864 Z" id="Path"></path>
            <path d="M74.808,37.68 L75.096,37.68 L80.28,51.072 L69.624,51.072 L74.808,37.68 Z M87.192,69 L100.224,69 L82.152,23.64 L68.472,23.64 L50.4,69 L62.712,69 L66.096,60.216 L83.808,60.216 L87.192,69 Z" id="Shape"></path>
            <path d="M115.704,44.52 L115.704,33.432 L124.416,33.432 C127.008,33.432 128.952,33.936 130.248,34.872 C131.544,35.808 132.192,37.248 132.192,39.048 C132.192,41.136 131.544,42.504 130.248,43.296 C128.952,44.088 127.008,44.52 124.416,44.52 L115.704,44.52 Z M144.792,69 C144,68.208 143.496,67.056 143.28,65.688 C143.064,64.32 142.776,61.944 142.416,58.56 C142.2,55.968 141.408,53.952 140.04,52.512 C138.672,51.144 136.872,50.208 134.496,49.704 C137.232,49.344 139.536,48.192 141.408,46.104 C143.208,44.016 144.144,41.352 144.144,38.04 C144.144,33.648 142.704,30.12 139.752,27.528 C136.8,24.936 132.408,23.64 126.576,23.64 L103.68,23.64 L103.68,69 L115.704,69 L115.704,53.952 L123.84,53.952 C125.928,53.952 127.512,54.384 128.592,55.176 C129.672,55.968 130.32,57.696 130.536,60.288 C130.752,62.664 130.968,64.536 131.256,65.904 C131.544,67.344 131.904,68.352 132.408,69 L144.792,69 Z" id="Shape"></path>
            <path d="M149.544,69 L167.472,69 C174.96,69 180.864,66.984 185.256,62.952 C189.648,58.92 191.808,53.376 191.808,46.32 C191.808,39.264 189.648,33.72 185.256,29.688 C180.864,25.656 174.96,23.64 167.472,23.64 L149.544,23.64 L149.544,69 Z M161.784,59.352 L161.784,33.288 L166.608,33.288 C170.568,33.288 173.664,34.44 175.896,36.672 C178.128,38.976 179.208,42.144 179.208,46.248 C179.208,50.424 178.128,53.664 175.896,55.896 C173.664,58.2 170.568,59.352 166.608,59.352 L161.784,59.352 Z" id="Shape"></path>
            <polygon id="Path" points="232.416 58.92 208.728 58.92 208.728 51.072 226.512 51.072 226.512 41.136 208.728 41.136 208.728 33.72 231.768 33.72 231.768 23.64 196.704 23.64 196.704 69 232.416 69"></polygon>
            <polygon id="Path" points="249.552 23.64 237.888 23.64 237.888 69 249.12 69 249.12 42.144 268.704 69 278.496 69 278.496 23.64 267.264 23.64 267.264 48.768"></polygon>
        </g>
    </g>
</svg>